<svg width="55" height="40" viewBox="0 0 55 40" fill="none" xmlns="http://www.w3.org/2000/svg">
<path d="M46.8256 25.4567C46.5677 23.8504 45.1842 22.5981 43.403 22.2248C36.4799 20.7702 34.7444 17.1963 34.4515 13.2323C33.2238 13.0275 31.0397 12.806 27.3323 12.806C23.6249 12.806 21.4407 13.0275 20.213 13.2323C19.9202 17.1963 18.1847 20.7702 11.2615 22.2248C9.48035 22.6005 8.09679 23.8504 7.83888 25.4567L6.50369 33.7461C6.03354 36.6649 8.42454 39.2972 11.7505 39.2972H42.9141C46.2373 39.2972 48.631 36.6649 48.1608 33.7461L46.8256 25.4567ZM27.3323 33.2572C23.5846 33.2572 20.5461 30.5599 20.5461 27.2365C20.5461 23.913 23.5846 21.2157 27.3323 21.2157C31.08 21.2157 34.1184 23.913 34.1184 27.2365C34.1184 30.5599 31.0773 33.2572 27.3323 33.2572ZM54.0631 10.3977C53.9986 6.78526 43.7415 0.766935 27.3323 0.764526C10.9203 0.766935 0.663196 6.78526 0.601406 10.3977C0.539616 14.0101 0.657823 18.7111 7.41173 17.9284C15.3128 17.0109 14.8265 14.5375 14.8265 11.0022C14.8265 8.53608 21.2527 7.94124 27.3323 7.94124C33.4118 7.94124 39.8353 8.53608 39.838 11.0022C39.838 14.5375 39.3517 17.0109 47.2528 17.9284C54.004 18.7111 54.1249 14.0101 54.0631 10.3977Z" fill="white"/>
</svg>
