<svg width="40" height="40" viewBox="0 0 40 40" fill="none" xmlns="http://www.w3.org/2000/svg">
<path d="M20.2615 15.04C19.3003 15.04 18.3606 15.3309 17.5614 15.8759C16.7622 16.4209 16.1392 17.1956 15.7714 18.1019C15.4035 19.0082 15.3073 20.0055 15.4948 20.9677C15.6824 21.9298 16.1452 22.8136 16.8249 23.5073C17.5046 24.2009 18.3706 24.6733 19.3133 24.8647C20.2561 25.0561 21.2333 24.9579 22.1213 24.5824C23.0094 24.207 23.7684 23.5713 24.3025 22.7556C24.8365 21.94 25.1215 20.981 25.1215 20C25.1215 19.3486 24.9958 18.7037 24.7516 18.1019C24.5073 17.5001 24.1493 16.9533 23.6981 16.4928C23.2468 16.0322 22.711 15.6668 22.1213 15.4176C21.5317 15.1683 20.8997 15.04 20.2615 15.04ZM39.7212 10.14C39.7109 8.59552 39.4323 7.06514 38.8982 5.62C38.5048 4.56252 37.8962 3.60219 37.1125 2.80237C36.3288 2.00255 35.3878 1.38144 34.3517 0.98C32.9357 0.434928 31.4361 0.150522 29.9228 0.14C27.3948 -1.3411e-07 26.6501 0 20.2615 0C13.8729 0 13.1282 -1.3411e-07 10.6002 0.14C9.08684 0.150522 7.58731 0.434928 6.17129 0.98C5.13512 1.38144 4.19414 2.00255 3.41044 2.80237C2.62675 3.60219 2.01815 4.56252 1.6248 5.62C1.09071 7.06514 0.812039 8.59552 0.801729 10.14C0.664551 12.72 0.664551 13.48 0.664551 20C0.664551 26.52 0.664551 27.28 0.801729 29.86C0.822823 31.4099 1.10112 32.945 1.6248 34.4C2.0164 35.4527 2.6245 36.4074 3.40812 37.2C4.18846 38.0046 5.13145 38.6257 6.17129 39.02C7.58731 39.5651 9.08684 39.8495 10.6002 39.86C13.1282 40 13.8729 40 20.2615 40C26.6501 40 27.3948 40 29.9228 39.86C31.4361 39.8495 32.9357 39.5651 34.3517 39.02C35.3915 38.6257 36.3345 38.0046 37.1148 37.2C37.8985 36.4074 38.5066 35.4527 38.8982 34.4C39.4317 32.9478 39.7104 31.4109 39.7212 29.86C39.8584 27.28 39.8584 26.52 39.8584 20C39.8584 13.48 39.8584 12.72 39.7212 10.14ZM34.7436 26.14C34.6807 27.3742 34.4226 28.5899 33.9793 29.74C33.5989 30.6994 33.0333 31.5709 32.3162 32.3027C31.5992 33.0345 30.7452 33.6117 29.8052 34C28.6676 34.4272 27.4698 34.6636 26.2581 34.7H14.2648C13.0532 34.6636 11.8554 34.4272 10.7178 34C9.74597 33.6314 8.86837 33.0435 8.15058 32.28C7.44052 31.5625 6.89215 30.6957 6.54363 29.74C6.12339 28.5802 5.89812 27.3564 5.87733 26.12V20V13.88C5.89812 12.6437 6.12339 11.4198 6.54363 10.26C6.90477 9.26821 7.4809 8.37256 8.22897 7.64C8.93511 6.91925 9.78352 6.36019 10.7178 6C11.8554 5.57281 13.0532 5.33642 14.2648 5.3H26.2581C27.4698 5.33642 28.6676 5.57281 29.8052 6C30.777 6.36856 31.6546 6.95655 32.3724 7.72C33.0825 8.4375 33.6308 9.30427 33.9793 10.26C34.3979 11.421 34.6295 12.6435 34.6652 13.88V20C34.6652 24.12 34.8024 24.54 34.7436 26.12V26.14ZM31.6081 11.26C31.3748 10.614 31.0069 10.0273 30.5299 9.54043C30.0528 9.05357 29.478 8.67813 28.8449 8.44C27.9758 8.13252 27.0603 7.98358 26.1406 8H14.3824C13.458 8.00922 12.5424 8.18527 11.678 8.52C11.0547 8.74731 10.4859 9.10743 10.0095 9.5764C9.53309 10.0454 9.15994 10.6125 8.91486 11.24C8.63027 12.1307 8.49123 13.0632 8.50332 14V26C8.52275 26.9424 8.69492 27.875 9.01285 28.76C9.24617 29.406 9.61405 29.9927 10.0911 30.4796C10.5681 30.9664 11.143 31.3419 11.776 31.58C12.6121 31.8938 13.492 32.0694 14.3824 32.1H26.1406C27.065 32.0908 27.9806 31.9147 28.8449 31.58C29.478 31.3419 30.0528 30.9664 30.5299 30.4796C31.0069 29.9927 31.3748 29.406 31.6081 28.76C31.9361 27.8779 32.1086 26.9435 32.1176 26V20V14C32.1182 13.0556 31.9454 12.1194 31.6081 11.24V11.26ZM20.2615 27.64C19.2793 27.64 18.3068 27.4423 17.3997 27.0581C16.4925 26.6739 15.6686 26.1108 14.975 25.4011C14.2814 24.6914 13.7318 23.849 13.3578 22.9222C12.9837 21.9954 12.7925 21.0024 12.7951 20C12.7951 18.4881 13.2346 17.0102 14.058 15.7534C14.8815 14.4966 16.0518 13.5173 17.4208 12.9397C18.7899 12.362 20.2961 12.2119 21.7488 12.5083C23.2014 12.8047 24.5353 13.5343 25.5814 14.6048C26.6276 15.6753 27.339 17.0385 27.6257 18.5218C27.9123 20.0051 27.7612 21.5419 27.1916 22.9376C26.622 24.3333 25.6595 25.5251 24.4258 26.3622C23.1922 27.1993 21.7429 27.644 20.2615 27.64ZM28.1003 13.86C27.6671 13.8132 27.2661 13.6044 26.9748 13.2739C26.6834 12.9434 26.5222 12.5146 26.5222 12.07C26.5222 11.6254 26.6834 11.1966 26.9748 10.8661C27.2661 10.5356 27.6671 10.3268 28.1003 10.28C28.5335 10.3268 28.9344 10.5356 29.2257 10.8661C29.5171 11.1966 29.6783 11.6254 29.6783 12.07C29.6783 12.5146 29.5171 12.9434 29.2257 13.2739C28.9344 13.6044 28.5335 13.8132 28.1003 13.86Z" fill="white"/>
</svg>
