<svg width="53" height="38" viewBox="0 0 53 38" fill="none" xmlns="http://www.w3.org/2000/svg">
<path d="M47.6178 9.42408L26.8104 20.9391L6.00311 9.42408V4.81806L26.8104 16.3331L47.6178 4.81806V9.42408ZM47.6178 0.212036H6.00311C3.11609 0.212036 0.80127 2.26172 0.80127 4.81806V32.4542C0.80127 33.6758 1.34932 34.8473 2.32485 35.7111C3.30039 36.5749 4.62349 37.0602 6.00311 37.0602H47.6178C48.9974 37.0602 50.3205 36.5749 51.296 35.7111C52.2716 34.8473 52.8196 33.6758 52.8196 32.4542V4.81806C52.8196 3.59647 52.2716 2.42491 51.296 1.56111C50.3205 0.697312 48.9974 0.212036 47.6178 0.212036Z" fill="white"/>
</svg>
