<svg width="172" height="200" viewBox="0 0 172 200" fill="none" xmlns="http://www.w3.org/2000/svg">
<path d="M166.623 38.4373C160.395 34.6319 154.993 35.3051 146.896 36.1965L134.444 37.7641C134.031 37.9916 133.819 38.2098 133.194 37.9916C131.326 37.7641 130.084 37.7641 129.458 37.5367C127.803 37.3184 126.348 37.3184 125.097 37.5367L122.816 37.3184L121.806 38.4096C122.113 38.9537 122.13 39.6791 121.792 40.217C121.75 40.3646 121.68 40.4967 121.596 40.6289L121.574 40.9025C121.474 40.9363 121.379 40.964 121.278 40.9978C121.161 41.0961 121.046 41.2007 120.887 41.2652C119.631 41.7878 118.467 42.5347 117.196 43.0173C116.032 43.4599 114.795 43.5675 113.601 43.881C111.378 44.462 109.295 45.4364 107.227 46.4538C107.065 46.4937 106.897 46.5368 106.724 46.5798C106.42 46.7304 106.113 46.8841 105.806 47.0347C100.415 49.6936 95.0905 52.5184 89.8921 55.5953C79.9503 61.4785 70.8042 68.7081 61.0746 74.9633C60.9517 75.0831 60.8205 75.1631 60.6726 75.2276C60.4045 75.3967 60.1449 75.5811 59.8769 75.7502C59.3241 76.2573 58.7657 76.7676 58.1292 77.327C57.716 77.5452 57.099 77.5452 56.6746 77.327C54.6031 75.5319 50.6554 73.5216 48.3744 72.3997C45.6775 70.3864 42.559 68.8218 39.6499 67.2542C36.7436 64.7951 33.8428 63.2306 31.7629 59.8771C30.3084 58.5307 29.2698 56.7449 28.8566 55.1772C28.4434 54.5041 28.2312 53.6096 28.0274 52.9364C27.402 49.8134 27.6142 47.1269 28.0274 43.9947C29.066 41.09 30.5205 37.5121 33.0053 34.8256C36.1238 30.1258 39.6499 25.8747 44.424 22.0755C47.9585 19.389 51.4818 17.1482 55.6416 15.3654L61.2449 13.5703C61.6581 13.1246 61.6581 13.1246 61.6581 13.5703C61.6581 13.7977 61.6581 14.0252 61.4459 14.2434C61.2421 16.2568 60.8289 18.0488 60.4157 19.8347C59.7903 22.9669 58.7518 26.0991 57.2972 29.0038C56.0548 32.8092 54.1871 36.1627 52.7325 39.9681C51.895 41.3052 51.895 41.7539 53.1457 42.8728C54.1843 44.2099 55.0135 45.3318 56.2558 46.005C57.7104 47.1239 59.5781 48.0183 61.2421 48.9097C63.523 49.8104 66.4322 50.9231 69.3385 50.9231C71.2062 50.9231 72.2448 50.4774 72.6608 48.6915C73.49 46.005 74.7323 43.546 75.5671 41.3052C78.0518 35.7139 80.344 29.8952 82.2117 23.4126C82.6249 21.3992 83.0409 19.6164 83.2419 17.5939C83.2419 15.5805 83.0381 14.0252 82.2117 12.2301C80.5478 9.77106 78.8894 8.42474 76.8095 6.63886C72.6691 3.72797 68.0961 1.48717 63.1182 0.36831C61.0383 -0.0773911 58.3414 -0.0773911 56.0604 0.15007C53.7795 0.36831 51.4874 1.04147 49.4158 1.93595C43.6004 4.17675 37.9971 6.19008 32.5949 9.98623L24.4985 16.6963C21.1762 19.8285 17.4407 23.4095 14.3306 27.6606C12.6666 30.5653 10.7961 33.2518 9.55372 36.384C8.30297 39.5162 8.30297 42.1935 8.92835 45.3257C9.14053 48.4579 9.96692 50.4712 11.2093 52.9303C13.9146 57.4119 17.4379 61.4355 21.5894 64.5677C27.4048 69.04 33.2203 72.8362 39.2395 76.6416C42.1458 78.4367 45.6803 80.2195 48.3772 82.4603C48.7904 83.1242 48.7904 83.1242 48.1651 84.0279C44.0136 87.1509 39.0357 90.7288 35.088 94.5372C31.5535 98.3426 28.0302 101.696 23.8787 106.165C22.4242 107.96 20.3442 109.743 19.3057 111.538C15.5702 115.783 12.46 120.708 9.33875 125.18C6.64182 128.312 4.56189 131.663 2.90632 135.698C1.65557 138.603 0.201013 141.508 0 144.64V146.208C0 147.775 0 149.34 0.625375 150.908C2.07993 152.475 2.49313 154.04 4.14869 155.153C5.60325 156.948 6.84562 158.512 8.72175 159.407C12.4572 161.202 16.3966 162.985 20.1321 163.879C22.8374 164.334 25.5343 164.78 28.0274 164.334C31.1375 163.879 33.8428 163.215 36.5398 161.42C39.6499 159.407 42.9722 156.72 46.0907 153.588C49.614 150.019 52.7353 146.429 55.8454 142.86C57.917 140.629 59.5279 138.271 61.0159 135.858C60.8373 138.468 60.9462 140.905 60.9462 143.346C61.3593 156.988 61.3593 165.484 64.4695 175.775C65.0948 178.015 65.7202 180.474 66.7504 182.706C67.789 184.501 68.8303 186.739 69.8689 188.079L72.778 191.43C73.1912 192.103 74.2326 192.548 75.2628 193.452C77.5521 195.465 80.4528 196.802 83.3592 197.476C86.0645 198.813 88.7614 199.707 91.4555 199.707C94.3619 200.153 97.8963 200.153 100.805 199.262C101.836 199.043 102.673 198.588 103.715 198.143C105.582 197.479 107.028 195.911 108.692 194.119C110.356 192.551 111.599 190.323 112.844 188.528C114.095 186.96 115.549 184.732 116.166 183.164C118.034 179.14 119.902 174.213 121.152 170.186L124.263 159.895C127.585 146.472 129.453 140.435 131.32 129.253C132.775 120.975 133.4 116.275 134.439 109.574C137.345 87.4275 138.59 78.4766 139.216 63.2675L139.629 52.5307C147.1 50.5173 152.29 48.7345 159.147 48.2765C160.177 48.0583 164.954 47.8308 165.579 48.0583C165.791 48.2765 166.618 48.0583 166.822 48.0583C177.004 51.1844 169.53 40.8963 166.623 38.4373ZM58.5452 97.8907C58.132 101.25 57.099 104.601 56.2642 107.736C53.5673 114.895 50.0356 121.159 45.6831 127.196C41.3222 133.015 36.7492 138.606 31.5591 143.524C29.2782 145.538 27.6198 147.33 25.9559 148.67C24.7135 150.465 15.3747 156.056 18.4849 149.116C18.2727 149.343 18.2727 149.343 18.0717 149.343V148.67C18.2755 147.551 18.2755 146.429 18.6887 145.319C19.9394 140.838 21.595 136.15 23.4655 131.669L31.5619 117.354C34.055 113.33 36.9641 109.304 39.8705 105.726C43.3938 101.472 46.6714 97.8876 50.4404 94.4665L52.364 93.1171C53.9219 92.3026 58.6792 89.6837 58.6792 90.1386C60.5441 91.9183 59.5837 92.2995 58.5452 97.8907ZM120.742 68.6343C120.117 72.4305 120.321 74.8895 118.874 86.0812C118.453 89.8773 117.42 93.6858 117.21 97.7094L113.475 117.17L113.062 119.847L112.232 123.207L109.326 136.184C109.114 138.197 108.489 140.429 107.872 142.221L104.549 154.744L103.511 157.43C102.472 160.562 101.643 163.913 100.392 166.827C98.3207 172.636 95.4144 178.455 92.0921 183.601C90.8497 184.719 89.5989 186.505 88.3566 187.845H88.1444L86.2766 183.601C85.0343 180.241 83.7919 177.109 82.9543 174.204C81.9158 167.491 81.4998 162.13 81.4998 156.09C81.712 152.512 81.913 148.931 81.712 146.017C81.712 144.231 81.9158 142.667 82.1252 141.317C82.5384 135.726 82.9543 130.362 83.9929 125.435C84.4061 122.976 86.2739 119.398 83.3675 117.83C80.6706 116.045 78.1775 115.599 74.8552 114.48C73.825 114.108 72.6636 113.81 71.4519 113.653C71.9824 111.299 72.323 108.904 72.4598 106.611V99.6827C71.9014 93.8825 69.4641 89.3763 65.9827 85.7677C66.0469 85.8046 66.0971 85.823 66.1306 85.8076L68.5819 84.5351L88.8172 72.7317C92.8933 70.5739 94.8058 69.5595 95.5177 69.1907C95.5512 69.1814 95.5875 69.1722 95.6238 69.163C94.6606 69.7163 91.3104 71.5852 94.2111 70.2665C96.2491 69.3382 100.311 67.457 104.7 65.4529C111.074 62.9601 119.564 59.8402 121.362 58.7951C121.158 62.1394 120.742 65.2716 120.742 68.6343Z" fill="black"/>
</svg>
